<svg xmlns="http://www.w3.org/2000/svg" viewBox="0 0 24 24" fill="none" stroke="currentColor" stroke-width="1.5">
  <path fill="#25D366" stroke="none" d="M12 0a12 12 0 0 0-10.6 17.9L0 24l6.3-1.6A12 12 0 1 0 12 0z"/>
  <path fill="#fff" stroke="none" d="M17.2 14.6c-.3.8-1.4 1.5-2.3 1.7-.6.1-1.3.3-4.4-.9-3.7-1.5-6.1-5.4-6.3-5.6-.2-.2-1.5-2-1.5-3.8s1-2.7 1.4-3c.3-.3.8-.4 1.1-.4h.8c.2 0 .6-.1.9.7.3.8 1.1 2.7 1.2 2.9.1.2.1.4 0 .6-.1.2-.2.3-.4.5l-.6.7c-.2.2-.4.4-.2.8.2.4 1 1.6 2.1 2.5 1.4 1.2 2.5 1.6 2.9 1.8.4.2.6.2.8-.1.2-.3.9-1.1 1.1-1.5.2-.4.5-.3.8-.2.3.1 2 .9 2.4 1.1.3.2.5.3.6.5.1.3.1 1-.2 1.8z"/>
</svg>
